Coordinates
version=1
nRows=19
nColumns=33
inDegrees=yes

Units are S.I. units (second, meters, Newtons, ...)
Angles are in degrees.

endheader
time	ground_thorax_rot_x	ground_thorax_rot_y	ground_thorax_rot_z	ground_thorax_tx	ground_thorax_ty	ground_thorax_tz	clav_prot_r	clav_elev_r	scapula_abduction_r	scapula_elevation_r	scapula_upward_rot_r	scapula_winging_r	shoulder_elv_r	plane_of_elev_r	axial_rot_r	elbow_flexion_r	pro_sup_r	wrist_flex_r	wrist_dev_r	clav_prot_l	clav_elev_l	scapula_abduction_l	scapula_elevation_l	scapula_upward_rot_l	scapula_winging_l	shoulder_elv_l	plane_of_elev_l	axial_rot_l	elbow_flexion_l	pro_sup_l	wrist_flex_l	wrist_dev_l
      2.94000000	      1.16352712	      5.99420956	     13.21681996	     -0.12235357	      1.03110083	      0.03296805	      3.02060073	      9.06700828	     17.91859735	      4.62970535	     24.79452289	    -10.50718987	     27.31787620	    -68.85524655	     49.43669437	     71.28831621	     -7.74182987	     29.32610430	    -24.99999983	     16.55582722	     -8.74951247	    -25.57548893	    -16.52090348	    -42.37055994	      4.10415234	     66.70084977	    -26.94720644	      1.06075539	     69.40553851	     12.56761251	     17.26557265	    -16.46465775
      2.95000000	      1.15342716	      5.93954885	     13.26291707	     -0.12224292	      1.03070046	      0.03269767	      3.44205896	      8.73704694	     18.79266223	      4.34943034	     24.77057490	    -10.71935529	     27.08724252	    -68.08175518	     48.64644023	     71.23231833	     -8.47124619	     24.54740985	    -24.99999983	     16.70468240	     -8.95756006	    -25.69566903	    -16.12962162	    -41.93671607	      4.22279764	     66.66662228	    -26.17910724	      1.28864524	     68.71480175	     10.82782354	     19.93602401	    -13.77487199
      2.96000000	      1.11829687	      6.06175313	     13.31390985	     -0.12200088	      1.03038409	      0.03242468	      3.68976144	      8.33077592	     19.46644505	      3.96852336	     24.87903324	    -10.88234488	     27.16205215	    -67.23561914	     48.69981049	     70.09152008	     -8.54446437	     24.09626705	    -24.99999983	     16.90759190	     -9.25317875	    -25.90535391	    -15.66194889	    -41.51560529	      4.37986561	     66.84321478	    -25.46187040	      1.04669176	     67.75544118	     10.85888010	     20.04326806	    -13.51075911
      2.97000000	      1.12883084	      5.96942293	     13.36227095	     -0.12168733	      1.02958015	      0.03207474	      3.98390558	      8.13042436	     20.36439268	      3.68675265	     25.22789339	    -11.15927547	     27.01776274	    -66.25051958	     48.89016848	     69.05130716	     -9.65582651	     21.98776213	    -24.99999983	     17.03852815	     -9.13751483	    -25.99503585	    -15.50684989	    -40.95879626	      4.51065386	     66.43584213	    -24.35930071	      1.17980208	     66.59445312	      9.97184319	     21.31848060	    -12.24647820
      2.98000000	      1.12388431	      6.09362173	     13.29095987	     -0.12144439	      1.02928842	      0.03178199	      4.28171717	      7.58060781	     21.08734513	      3.21253654	     25.25438584	    -11.31048443	     27.20071674	    -65.35824073	     48.82184398	     67.70217759	     -9.84472898	     21.58033540	    -24.99999983	     17.28118166	     -9.55671307	    -26.26633771	    -14.91903411	    -40.52362728	      4.69507135	     66.67418434	    -23.66307099	      0.83457964	     65.56288706	     10.02439930	     21.44708252	    -11.98818515
      2.99000000	      1.10212513	      5.95974730	     13.38899621	     -0.12113229	      1.02861284	      0.03136289	      4.69582842	      7.30307690	     22.12545126	      2.90022412	     25.49828267	    -11.61255311	     27.02471483	    -64.16192747	     49.54098286	     66.18329012	    -11.97033041	     20.07588342	    -24.99999983	     17.41794702	     -9.47726450	    -26.34783068	    -14.68136417	    -39.86126339	      4.83069895	     66.06405262	    -22.62326505	      1.21579401	     64.12635310	      8.94106427	     23.07999403	    -10.67412974
      3.00000000	      1.02422234	      5.92373739	     13.32734410	     -0.12081924	      1.02820164	      0.03095230	      5.09687314	      6.79468512	     23.09738707	      2.42853669	     25.63756857	    -11.85779706	     27.01840890	    -62.95473681	     50.20066752	     64.37503023	    -13.58254671	     19.71944945	    -24.99999983	     17.61010160	     -9.66829431	    -26.53312063	    -14.24620839	    -39.30855330	      4.99097336	     65.91472334	    -21.80031737	      1.27080095	     62.82861018	      8.32492074	     23.98987314	     -9.84569488
      3.01000000	      0.92057183	      5.84157862	     13.38950237	     -0.12052063	      1.02799017	      0.03055452	      5.45886239	      6.14806051	     23.98866643	      1.85574059	     25.74234728	    -12.03783766	     26.87858889	    -61.76946682	     50.83357432	     62.19142388	    -14.57809419	     19.35645305	    -24.99999983	     17.77956525	     -9.91532307	    -26.69147392	    -13.79295790	    -38.81939987	      5.11685040	     65.76925563	    -21.06081505	      1.39248286	     61.40372816	      8.12164094	     24.41252978	     -9.37226387
      3.02000000	      1.14110025	      5.83823478	     13.30508149	     -0.12011044	      1.02706536	      0.03003633	      5.89750153	      6.09284674	     25.12723366	      1.68679634	     26.14568776	    -12.42176694	     26.87674883	    -60.51896916	     52.51532947	     60.11434833	    -19.17061103	     20.53355893	    -24.99999983	     17.92992569	     -9.91697860	    -26.76543981	    -13.37783833	    -37.93730312	      5.26838868	     64.99011481	    -19.70908066	      1.44549891	     59.40076650	      7.04173454	     26.31266408	     -8.26603674
      3.03000000	      1.17313684	      5.67960772	     13.26598430	     -0.11969891	      1.02673463	      0.02930510	      6.25737847	      5.81745729	     26.34996894	      1.27021620	     26.77881275	    -12.80051669	     26.26092602	    -58.89645411	     55.00563823	     56.58463059	    -23.88354358	     23.95044808	    -24.99999983	     17.99106319	    -10.01184584	    -26.73215515	    -12.98878032	    -37.27648498	      5.32489300	     64.46575553	    -18.58700520	      1.69884412	     57.50251100	      6.74452078	     27.04917175	     -7.57822102
      3.04000000	      0.99253136	      5.34371500	     12.99554469	     -0.11936682	      1.02690174	      0.02850705	      6.95814870	      5.27945781	     28.18425505	      0.66013508	     27.37013235	    -13.33145593	     24.25887632	    -56.74647934	     58.38579831	     51.31843794	    -35.59742042	     34.01383316	    -24.99999983	     18.00532910	    -10.33548266	    -26.55242311	    -12.23487742	    -36.28441432	      5.30771081	     64.23290341	    -18.21804185	      2.16351472	     55.87761189	      6.55110178	     28.74377889	     -7.31505915
      3.05000000	     -1.05530008	      3.74837032	     12.56741734	     -0.11871375	      1.02556785	      0.01540151	     13.44995627	    -12.72404130	     29.45028588	     -9.65248819	     11.58973647	     -7.42427898	    -16.04751104	    -66.29564791	    115.90160810	    -66.68023074	   -156.88944809	      5.20646190	     14.43570272	     16.30687909	     -5.61155666	    -23.26588120	    -14.36893847	    -31.54871132	      4.55214297	     60.09311073	    -15.93297627	      1.87969910	     54.00407382	      8.00332486	     28.54603698	     -6.06833585
      3.06000000	     -1.43180046	      4.10637802	     12.53397875	     -0.11875673	      1.02601116	      0.01503745	     13.38968452	    -13.93717540	     29.16026366	    -10.63701709	     11.32352146	     -6.62180846	    -13.73087469	    -65.86928684	    118.40797288	    -64.87960042	   -157.87357085	      2.45382525	      8.86412303	     17.22976365	     -5.87738890	    -24.83308625	    -13.91047418	    -31.21976257	      5.40017638	     59.70892621	    -14.56063960	      2.50520106	     51.69754644	      8.40128796	     29.79574876	     -5.50016885
      3.07000000	     -1.63397941	      4.26365094	     12.42700275	     -0.11790957	      1.02660060	      0.01488973	     13.55244646	    -14.62349152	     29.78101515	    -11.45931124	     11.96453813	     -6.43990858	    -12.77497088	    -65.19607788	    118.43060772	    -62.38451726	   -157.91678987	      1.97060703	      9.07641026	     17.46429613	     -6.34835686	    -25.18843597	    -13.21851498	    -30.69445288	      5.63046074	     59.69487572	    -13.64083239	      2.55778882	     49.47326790	      8.69169326	     29.88947435	     -5.16692509
      3.08000000	     -1.88306867	      4.25340966	     12.17175755	     -0.11703880	      1.02632711	      0.01453327	     13.54135293	    -14.88418586	     30.36147352	    -12.02688287	     12.97235818	     -6.45595189	    -11.25905552	    -64.48996761	    119.82694538	    -59.85909835	   -157.98587301	      1.77135447	      9.70762408	     17.88840850	     -5.98730729	    -25.86854518	    -13.09052815	    -29.79936097	      6.13151092	     58.66830678	    -11.89973991	      3.62258299	     46.54665053	      8.98367400	     30.82786624	     -5.17506342
      3.09000000	     -2.05371757	      4.33308875	     12.07021687	     -0.11652914	      1.02616083	      0.01431281	     13.78293846	    -15.16513145	     30.99772533	    -12.40883796	     13.40080531	     -6.52805542	     -9.41583230	    -63.56684397	    121.02932711	    -57.34248123	   -157.65021279	      1.46236254	      9.90707925	     18.43432430	     -5.93909794	    -26.76866704	    -12.70145275	    -28.97028690	      6.72587238	     57.78471097	    -10.49102862	      4.40882449	     43.68538674	      9.69419160	     31.89481593	     -5.44606892
      3.10000000	     -2.21084927	      4.47153537	     11.79290541	     -0.11573076	      1.02664009	      0.01428495	     14.04242652	    -15.70110734	     31.69954800	    -13.04182626	     13.90911031	     -6.45418345	     -8.26455586	    -62.80078056	    121.16276620	    -55.08429082	   -157.38099732	      0.99722706	      9.86293879	     18.76062918	     -6.38702165	    -27.29434551	    -11.94228572	    -28.26543067	      7.05997941	     57.69068734	     -9.47672545	      4.49548068	     41.00804792	     10.27472141	     32.14352247	     -5.25265618
      3.11000000	     -2.34514006	      4.41267683	     11.75721197	     -0.11491072	      1.02633116	      0.01387654	     14.14856756	    -15.79545897	     32.34327916	    -13.36921543	     14.68489008	     -6.60503138	     -6.87131705	    -62.12073417	    122.49626421	    -52.46285374	   -156.61176029	      0.77559458	      9.78809103	     19.19657950	     -6.12427819	    -28.03275203	    -11.72645485	    -27.38341430	      7.59807161	     56.51592595	     -7.97043979	      5.53774620	     37.91822967	     11.11573877	     32.80275819	     -5.72828477
      3.12000000	     -2.41636375	      4.53384685	     11.70050770	     -0.11458747	      1.02590776	      0.01374235	     14.49104238	    -15.75904446	     33.03674877	    -13.39874452	     14.92624345	     -6.92477147	     -5.08044350	    -61.08727655	    123.72314220	    -50.02324839	   -155.34361639	      0.81167281	      9.36436080	     19.89741558	     -6.19619532	    -29.22839214	    -11.24580342	    -26.61096019	      8.34520518	     55.70222256	     -6.73650482	      6.03564079	     34.99162677	     12.72855100	     33.27443802	     -6.83608336
